<svg id="visual" viewBox="0 0 2000 600" width="2000" height="600" xmlns="http://www.w3.org/2000/svg" xmlns:xlink="http://www.w3.org/1999/xlink" version="1.1"><path d="M0 183L47.7 183.2C95.3 183.3 190.7 183.7 285.8 183C381 182.3 476 180.7 571.2 186C666.3 191.3 761.7 203.7 857 199.8C952.3 196 1047.7 176 1143 169.2C1238.3 162.3 1333.7 168.7 1428.8 173.3C1524 178 1619 181 1714.2 179.5C1809.3 178 1904.7 172 1952.3 169L2000 166L2000 0L1952.3 0C1904.7 0 1809.3 0 1714.2 0C1619 0 1524 0 1428.8 0C1333.7 0 1238.3 0 1143 0C1047.7 0 952.3 0 857 0C761.7 0 666.3 0 571.2 0C476 0 381 0 285.8 0C190.7 0 95.3 0 47.7 0L0 0Z" fill="#69d7fa"></path><path d="M0 133L47.7 136.2C95.3 139.3 190.7 145.7 285.8 153.5C381 161.3 476 170.7 571.2 176.3C666.3 182 761.7 184 857 179.8C952.3 175.7 1047.7 165.3 1143 166.8C1238.3 168.3 1333.7 181.7 1428.8 176.8C1524 172 1619 149 1714.2 149.7C1809.3 150.3 1904.7 174.7 1952.3 186.8L2000 199L2000 0L1952.3 0C1904.7 0 1809.3 0 1714.2 0C1619 0 1524 0 1428.8 0C1333.7 0 1238.3 0 1143 0C1047.7 0 952.3 0 857 0C761.7 0 666.3 0 571.2 0C476 0 381 0 285.8 0C190.7 0 95.3 0 47.7 0L0 0Z" fill="#4bc0f0"></path><path d="M0 113L47.7 112.7C95.3 112.3 190.7 111.7 285.8 111.3C381 111 476 111 571.2 113.2C666.3 115.3 761.7 119.7 857 125.8C952.3 132 1047.7 140 1143 143.2C1238.3 146.3 1333.7 144.7 1428.8 138.8C1524 133 1619 123 1714.2 123.3C1809.3 123.7 1904.7 134.3 1952.3 139.7L2000 145L2000 0L1952.3 0C1904.7 0 1809.3 0 1714.2 0C1619 0 1524 0 1428.8 0C1333.7 0 1238.3 0 1143 0C1047.7 0 952.3 0 857 0C761.7 0 666.3 0 571.2 0C476 0 381 0 285.8 0C190.7 0 95.3 0 47.7 0L0 0Z" fill="#31a8e4"></path><path d="M0 57L47.7 60.5C95.3 64 190.7 71 285.8 71.3C381 71.7 476 65.3 571.2 71.3C666.3 77.3 761.7 95.7 857 97.7C952.3 99.7 1047.7 85.3 1143 82.3C1238.3 79.3 1333.7 87.7 1428.8 92.3C1524 97 1619 98 1714.2 92C1809.3 86 1904.7 73 1952.3 66.5L2000 60L2000 0L1952.3 0C1904.7 0 1809.3 0 1714.2 0C1619 0 1524 0 1428.8 0C1333.7 0 1238.3 0 1143 0C1047.7 0 952.3 0 857 0C761.7 0 666.3 0 571.2 0C476 0 381 0 285.8 0C190.7 0 95.3 0 47.7 0L0 0Z" fill="#2190d7"></path><path d="M0 54L47.7 56C95.3 58 190.7 62 285.8 62.5C381 63 476 60 571.2 60.8C666.3 61.7 761.7 66.3 857 64.7C952.3 63 1047.7 55 1143 50C1238.3 45 1333.7 43 1428.8 44.2C1524 45.3 1619 49.7 1714.2 49C1809.3 48.3 1904.7 42.7 1952.3 39.8L2000 37L2000 0L1952.3 0C1904.7 0 1809.3 0 1714.2 0C1619 0 1524 0 1428.8 0C1333.7 0 1238.3 0 1143 0C1047.7 0 952.3 0 857 0C761.7 0 666.3 0 571.2 0C476 0 381 0 285.8 0C190.7 0 95.3 0 47.7 0L0 0Z" fill="#2478c7"></path></svg>