<svg id="visual" viewBox="0 0 2000 540" width="2000" height="540" xmlns="http://www.w3.org/2000/svg" xmlns:xlink="http://www.w3.org/1999/xlink" version="1.1">
    <rect x="0" y="0" width="2000" height="540" fill="#ffffff"></rect>
    <g id="wave1_1">
        <path d="M0 141L20.8 136.2C41.7 131.3 83.3 121.7 125 122.7C166.7 123.7 208.3 135.3 250 136.3C291.7 137.3 333.3 127.7 375 121.2C416.7 114.7 458.3 111.3 500 107.7C541.7 104 583.3 100 625 85.7C666.7 71.3 708.3 46.7 750 46.7C791.7 46.7 833.3 71.3 875 74.8C916.7 78.3 958.3 60.7 1000 67.8C1041.7 75 1083.3 107 1125 118C1166.7 129 1208.3 119 1250 103.7C1291.7 88.3 1333.3 67.7 1375 65.5C1416.7 63.3 1458.3 79.7 1500 84C1541.7 88.3 1583.3 80.7 1625 65.7C1666.7 50.7 1708.3 28.3 1750 31.5C1791.7 34.7 1833.3 63.3 1875 79.8C1916.7 96.3 1958.3 100.7 1979.2 102.8L2000 105L2000 541L1979.2 541C1958.3 541 1916.7 541 1875 541C1833.3 541 1791.7 541 1750 541C1708.3 541 1666.7 541 1625 541C1583.3 541 1541.7 541 1500 541C1458.3 541 1416.7 541 1375 541C1333.3 541 1291.7 541 1250 541C1208.3 541 1166.7 541 1125 541C1083.3 541 1041.7 541 1000 541C958.3 541 916.7 541 875 541C833.3 541 791.7 541 750 541C708.3 541 666.7 541 625 541C583.3 541 541.7 541 500 541C458.3 541 416.7 541 375 541C333.3 541 291.7 541 250 541C208.3 541 166.7 541 125 541C83.3 541 41.7 541 20.8 541L0 541Z" fill="#69a2cc"></path>
    </g>
    <g id="wave1_2">
        <path id="wave1_2" d="M0 182L20.8 171.3C41.7 160.7 83.3 139.3 125 142.7C166.7 146 208.3 174 250 170C291.7 166 333.3 130 375 116.2C416.7 102.3 458.3 110.7 500 108.3C541.7 106 583.3 93 625 102.2C666.7 111.3 708.3 142.7 750 157.3C791.7 172 833.3 170 875 173.5C916.7 177 958.3 186 1000 179.7C1041.7 173.3 1083.3 151.7 1125 135.7C1166.7 119.7 1208.3 109.3 1250 116.2C1291.7 123 1333.3 147 1375 164.3C1416.7 181.7 1458.3 192.3 1500 187.8C1541.7 183.3 1583.3 163.7 1625 160.3C1666.7 157 1708.3 170 1750 178C1791.7 186 1833.3 189 1875 172.5C1916.7 156 1958.3 120 1979.2 102L2000 84L2000 541L1979.2 541C1958.3 541 1916.7 541 1875 541C1833.3 541 1791.7 541 1750 541C1708.3 541 1666.7 541 1625 541C1583.3 541 1541.7 541 1500 541C1458.3 541 1416.7 541 1375 541C1333.3 541 1291.7 541 1250 541C1208.3 541 1166.7 541 1125 541C1083.3 541 1041.7 541 1000 541C958.3 541 916.7 541 875 541C833.3 541 791.7 541 750 541C708.3 541 666.7 541 625 541C583.3 541 541.7 541 500 541C458.3 541 416.7 541 375 541C333.3 541 291.7 541 250 541C208.3 541 166.7 541 125 541C83.3 541 41.7 541 20.8 541L0 541Z" fill="#5294c4"></path>
    </g>
    <g id="wave1_3">
        <path id="wave1_3" d="M0 284L20.8 272.5C41.7 261 83.3 238 125 216.5C166.7 195 208.3 175 250 182.3C291.7 189.7 333.3 224.3 375 224.3C416.7 224.3 458.3 189.7 500 196.8C541.7 204 583.3 253 625 255C666.7 257 708.3 212 750 212.2C791.7 212.3 833.3 257.7 875 258.5C916.7 259.3 958.3 215.7 1000 194.2C1041.7 172.7 1083.3 173.3 1125 184.2C1166.7 195 1208.3 216 1250 224.8C1291.7 233.7 1333.3 230.3 1375 240.2C1416.7 250 1458.3 273 1500 281C1541.7 289 1583.3 282 1625 272.8C1666.7 263.7 1708.3 252.3 1750 240.8C1791.7 229.3 1833.3 217.7 1875 215.3C1916.7 213 1958.3 220 1979.2 223.5L2000 227L2000 541L1979.2 541C1958.3 541 1916.7 541 1875 541C1833.3 541 1791.7 541 1750 541C1708.3 541 1666.7 541 1625 541C1583.3 541 1541.7 541 1500 541C1458.3 541 1416.7 541 1375 541C1333.3 541 1291.7 541 1250 541C1208.3 541 1166.7 541 1125 541C1083.3 541 1041.7 541 1000 541C958.3 541 916.7 541 875 541C833.3 541 791.7 541 750 541C708.3 541 666.7 541 625 541C583.3 541 541.7 541 500 541C458.3 541 416.7 541 375 541C333.3 541 291.7 541 250 541C208.3 541 166.7 541 125 541C83.3 541 41.7 541 20.8 541L0 541Z" fill="#3987bd"></path>
    </g>
    <g id="wave1_4">
        <path id="wave1_4" d="M0 366L20.8 355C41.7 344 83.3 322 125 314.7C166.7 307.3 208.3 314.7 250 324.8C291.7 335 333.3 348 375 334C416.7 320 458.3 279 500 261.7C541.7 244.3 583.3 250.7 625 271C666.7 291.3 708.3 325.7 750 336.3C791.7 347 833.3 334 875 315.2C916.7 296.3 958.3 271.7 1000 259.7C1041.7 247.7 1083.3 248.3 1125 256.3C1166.7 264.3 1208.3 279.7 1250 286.7C1291.7 293.7 1333.3 292.3 1375 284.7C1416.7 277 1458.3 263 1500 259.7C1541.7 256.3 1583.3 263.7 1625 261.8C1666.7 260 1708.3 249 1750 246.3C1791.7 243.7 1833.3 249.3 1875 257.8C1916.7 266.3 1958.3 277.7 1979.2 283.3L2000 289L2000 541L1979.2 541C1958.3 541 1916.7 541 1875 541C1833.3 541 1791.7 541 1750 541C1708.3 541 1666.7 541 1625 541C1583.3 541 1541.7 541 1500 541C1458.3 541 1416.7 541 1375 541C1333.3 541 1291.7 541 1250 541C1208.3 541 1166.7 541 1125 541C1083.3 541 1041.7 541 1000 541C958.3 541 916.7 541 875 541C833.3 541 791.7 541 750 541C708.3 541 666.7 541 625 541C583.3 541 541.7 541 500 541C458.3 541 416.7 541 375 541C333.3 541 291.7 541 250 541C208.3 541 166.7 541 125 541C83.3 541 41.7 541 20.8 541L0 541Z" fill="#2679af"></path>
    </g>
    <g id="wave1_5"> 
        <path id="wave1_5" d="M0 447L20.8 437.3C41.7 427.7 83.3 408.3 125 409.5C166.7 410.7 208.3 432.3 250 441.2C291.7 450 333.3 446 375 438.7C416.7 431.3 458.3 420.7 500 416.7C541.7 412.7 583.3 415.3 625 403.3C666.7 391.3 708.3 364.7 750 355.2C791.7 345.7 833.3 353.3 875 372.2C916.7 391 958.3 421 1000 422.2C1041.7 423.3 1083.3 395.7 1125 373C1166.7 350.3 1208.3 332.7 1250 348.2C1291.7 363.7 1333.3 412.3 1375 428.2C1416.7 444 1458.3 427 1500 408.8C1541.7 390.7 1583.3 371.3 1625 379C1666.7 386.7 1708.3 421.3 1750 418.3C1791.7 415.3 1833.3 374.7 1875 357C1916.7 339.3 1958.3 344.7 1979.2 347.3L2000 350L2000 541L1979.2 541C1958.3 541 1916.7 541 1875 541C1833.3 541 1791.7 541 1750 541C1708.3 541 1666.7 541 1625 541C1583.3 541 1541.7 541 1500 541C1458.3 541 1416.7 541 1375 541C1333.3 541 1291.7 541 1250 541C1208.3 541 1166.7 541 1125 541C1083.3 541 1041.7 541 1000 541C958.3 541 916.7 541 875 541C833.3 541 791.7 541 750 541C708.3 541 666.7 541 625 541C583.3 541 541.7 541 500 541C458.3 541 416.7 541 375 541C333.3 541 291.7 541 250 541C208.3 541 166.7 541 125 541C83.3 541 41.7 541 20.8 541L0 541Z" fill="#216b9b"></path>
    </g>
    <g id="wave1_6">
        <path id="wave1_6" d="M0 530L20.8 525.7C41.7 521.3 83.3 512.7 125 511C166.7 509.3 208.3 514.7 250 501.3C291.7 488 333.3 456 375 448C416.7 440 458.3 456 500 465.8C541.7 475.7 583.3 479.3 625 479.7C666.7 480 708.3 477 750 466.3C791.7 455.7 833.3 437.3 875 425.2C916.7 413 958.3 407 1000 414.8C1041.7 422.7 1083.3 444.3 1125 461.3C1166.7 478.3 1208.3 490.7 1250 486C1291.7 481.3 1333.3 459.7 1375 456.5C1416.7 453.3 1458.3 468.7 1500 480.7C1541.7 492.7 1583.3 501.3 1625 509.7C1666.7 518 1708.3 526 1750 508.2C1791.7 490.3 1833.3 446.7 1875 443C1916.7 439.3 1958.3 475.7 1979.2 493.8L2000 512L2000 541L1979.2 541C1958.3 541 1916.7 541 1875 541C1833.3 541 1791.7 541 1750 541C1708.3 541 1666.7 541 1625 541C1583.3 541 1541.7 541 1500 541C1458.3 541 1416.7 541 1375 541C1333.3 541 1291.7 541 1250 541C1208.3 541 1166.7 541 1125 541C1083.3 541 1041.7 541 1000 541C958.3 541 916.7 541 875 541C833.3 541 791.7 541 750 541C708.3 541 666.7 541 625 541C583.3 541 541.7 541 500 541C458.3 541 416.7 541 375 541C333.3 541 291.7 541 250 541C208.3 541 166.7 541 125 541C83.3 541 41.7 541 20.8 541L0 541Z" fill="#1c5e87"></path>
    </g>
</svg>