<svg id="visual" viewBox="0 0 2000 540" width="2000" height="540" xmlns="http://www.w3.org/2000/svg" xmlns:xlink="http://www.w3.org/1999/xlink" version="1.1"><rect x="0" y="0" width="2000" height="540" fill="#1c5e87"></rect><path d="M0 79L20.8 80.5C41.7 82 83.3 85 125 96.7C166.7 108.3 208.3 128.7 250 132.2C291.7 135.7 333.3 122.3 375 112.5C416.7 102.7 458.3 96.3 500 100.8C541.7 105.3 583.3 120.7 625 122.8C666.7 125 708.3 114 750 114.2C791.7 114.3 833.3 125.7 875 120.2C916.7 114.7 958.3 92.3 1000 72.5C1041.7 52.7 1083.3 35.3 1125 33C1166.7 30.7 1208.3 43.3 1250 65.8C1291.7 88.3 1333.3 120.7 1375 130C1416.7 139.3 1458.3 125.7 1500 124.8C1541.7 124 1583.3 136 1625 127.7C1666.7 119.3 1708.3 90.7 1750 90.7C1791.7 90.7 1833.3 119.3 1875 117.7C1916.7 116 1958.3 84 1979.2 68L2000 52L2000 541L1979.2 541C1958.3 541 1916.7 541 1875 541C1833.3 541 1791.7 541 1750 541C1708.3 541 1666.7 541 1625 541C1583.3 541 1541.7 541 1500 541C1458.3 541 1416.7 541 1375 541C1333.3 541 1291.7 541 1250 541C1208.3 541 1166.7 541 1125 541C1083.3 541 1041.7 541 1000 541C958.3 541 916.7 541 875 541C833.3 541 791.7 541 750 541C708.3 541 666.7 541 625 541C583.3 541 541.7 541 500 541C458.3 541 416.7 541 375 541C333.3 541 291.7 541 250 541C208.3 541 166.7 541 125 541C83.3 541 41.7 541 20.8 541L0 541Z" fill="#1c5e87"></path><path d="M0 173L20.8 157.2C41.7 141.3 83.3 109.7 125 99.7C166.7 89.7 208.3 101.3 250 105.7C291.7 110 333.3 107 375 112C416.7 117 458.3 130 500 146.7C541.7 163.3 583.3 183.7 625 198C666.7 212.3 708.3 220.7 750 200.3C791.7 180 833.3 131 875 130.7C916.7 130.3 958.3 178.7 1000 196.5C1041.7 214.3 1083.3 201.7 1125 184.3C1166.7 167 1208.3 145 1250 147C1291.7 149 1333.3 175 1375 177.7C1416.7 180.3 1458.3 159.7 1500 148C1541.7 136.3 1583.3 133.7 1625 139.7C1666.7 145.7 1708.3 160.3 1750 160.5C1791.7 160.7 1833.3 146.3 1875 143.5C1916.7 140.7 1958.3 149.3 1979.2 153.7L2000 158L2000 541L1979.2 541C1958.3 541 1916.7 541 1875 541C1833.3 541 1791.7 541 1750 541C1708.3 541 1666.7 541 1625 541C1583.3 541 1541.7 541 1500 541C1458.3 541 1416.7 541 1375 541C1333.3 541 1291.7 541 1250 541C1208.3 541 1166.7 541 1125 541C1083.3 541 1041.7 541 1000 541C958.3 541 916.7 541 875 541C833.3 541 791.7 541 750 541C708.3 541 666.7 541 625 541C583.3 541 541.7 541 500 541C458.3 541 416.7 541 375 541C333.3 541 291.7 541 250 541C208.3 541 166.7 541 125 541C83.3 541 41.7 541 20.8 541L0 541Z" fill="#1a4d6f"></path><path d="M0 162L20.8 163.5C41.7 165 83.3 168 125 169.8C166.7 171.7 208.3 172.3 250 188.5C291.7 204.7 333.3 236.3 375 235C416.7 233.7 458.3 199.3 500 189.5C541.7 179.7 583.3 194.3 625 205.8C666.7 217.3 708.3 225.7 750 231.5C791.7 237.3 833.3 240.7 875 239.7C916.7 238.7 958.3 233.3 1000 222.3C1041.7 211.3 1083.3 194.7 1125 193.8C1166.7 193 1208.3 208 1250 216.7C1291.7 225.3 1333.3 227.7 1375 226.8C1416.7 226 1458.3 222 1500 224.3C1541.7 226.7 1583.3 235.3 1625 227C1666.7 218.7 1708.3 193.3 1750 194.5C1791.7 195.7 1833.3 223.3 1875 241.2C1916.7 259 1958.3 267 1979.2 271L2000 275L2000 541L1979.2 541C1958.3 541 1916.7 541 1875 541C1833.3 541 1791.7 541 1750 541C1708.3 541 1666.7 541 1625 541C1583.3 541 1541.7 541 1500 541C1458.3 541 1416.7 541 1375 541C1333.3 541 1291.7 541 1250 541C1208.3 541 1166.7 541 1125 541C1083.3 541 1041.7 541 1000 541C958.3 541 916.7 541 875 541C833.3 541 791.7 541 750 541C708.3 541 666.7 541 625 541C583.3 541 541.7 541 500 541C458.3 541 416.7 541 375 541C333.3 541 291.7 541 250 541C208.3 541 166.7 541 125 541C83.3 541 41.7 541 20.8 541L0 541Z" fill="#173c57"></path><path d="M0 313L20.8 303.2C41.7 293.3 83.3 273.7 125 272.3C166.7 271 208.3 288 250 294.8C291.7 301.7 333.3 298.3 375 304.5C416.7 310.7 458.3 326.3 500 340.2C541.7 354 583.3 366 625 367.3C666.7 368.7 708.3 359.3 750 348C791.7 336.7 833.3 323.3 875 319.7C916.7 316 958.3 322 1000 332.7C1041.7 343.3 1083.3 358.7 1125 350.3C1166.7 342 1208.3 310 1250 286.7C1291.7 263.3 1333.3 248.7 1375 262.3C1416.7 276 1458.3 318 1500 328.2C1541.7 338.3 1583.3 316.7 1625 312.5C1666.7 308.3 1708.3 321.7 1750 332.5C1791.7 343.3 1833.3 351.7 1875 347.2C1916.7 342.7 1958.3 325.3 1979.2 316.7L2000 308L2000 541L1979.2 541C1958.3 541 1916.7 541 1875 541C1833.3 541 1791.7 541 1750 541C1708.3 541 1666.7 541 1625 541C1583.3 541 1541.7 541 1500 541C1458.3 541 1416.7 541 1375 541C1333.3 541 1291.7 541 1250 541C1208.3 541 1166.7 541 1125 541C1083.3 541 1041.7 541 1000 541C958.3 541 916.7 541 875 541C833.3 541 791.7 541 750 541C708.3 541 666.7 541 625 541C583.3 541 541.7 541 500 541C458.3 541 416.7 541 375 541C333.3 541 291.7 541 250 541C208.3 541 166.7 541 125 541C83.3 541 41.7 541 20.8 541L0 541Z" fill="#132c41"></path><path d="M0 459L20.8 435.3C41.7 411.7 83.3 364.3 125 342.2C166.7 320 208.3 323 250 327.5C291.7 332 333.3 338 375 359.3C416.7 380.7 458.3 417.3 500 423.2C541.7 429 583.3 404 625 400.7C666.7 397.3 708.3 415.7 750 410.7C791.7 405.7 833.3 377.3 875 356.8C916.7 336.3 958.3 323.7 1000 341C1041.7 358.3 1083.3 405.7 1125 408.2C1166.7 410.7 1208.3 368.3 1250 364.5C1291.7 360.7 1333.3 395.3 1375 393.8C1416.7 392.3 1458.3 354.7 1500 335C1541.7 315.3 1583.3 313.7 1625 323.7C1666.7 333.7 1708.3 355.3 1750 372.7C1791.7 390 1833.3 403 1875 402.5C1916.7 402 1958.3 388 1979.2 381L2000 374L2000 541L1979.2 541C1958.3 541 1916.7 541 1875 541C1833.3 541 1791.7 541 1750 541C1708.3 541 1666.7 541 1625 541C1583.3 541 1541.7 541 1500 541C1458.3 541 1416.7 541 1375 541C1333.3 541 1291.7 541 1250 541C1208.3 541 1166.7 541 1125 541C1083.3 541 1041.7 541 1000 541C958.3 541 916.7 541 875 541C833.3 541 791.7 541 750 541C708.3 541 666.7 541 625 541C583.3 541 541.7 541 500 541C458.3 541 416.7 541 375 541C333.3 541 291.7 541 250 541C208.3 541 166.7 541 125 541C83.3 541 41.7 541 20.8 541L0 541Z" fill="#0d1d2c"></path><path d="M0 526L20.8 522.8C41.7 519.7 83.3 513.3 125 500.7C166.7 488 208.3 469 250 466.2C291.7 463.3 333.3 476.7 375 487C416.7 497.3 458.3 504.7 500 508.8C541.7 513 583.3 514 625 511.2C666.7 508.3 708.3 501.7 750 483C791.7 464.3 833.3 433.7 875 431C916.7 428.3 958.3 453.7 1000 464.8C1041.7 476 1083.3 473 1125 467.3C1166.7 461.7 1208.3 453.3 1250 461.8C1291.7 470.3 1333.3 495.7 1375 493.8C1416.7 492 1458.3 463 1500 461C1541.7 459 1583.3 484 1625 489.3C1666.7 494.7 1708.3 480.3 1750 465.7C1791.7 451 1833.3 436 1875 429.5C1916.7 423 1958.3 425 1979.2 426L2000 427L2000 541L1979.2 541C1958.3 541 1916.7 541 1875 541C1833.3 541 1791.7 541 1750 541C1708.3 541 1666.7 541 1625 541C1583.3 541 1541.7 541 1500 541C1458.3 541 1416.7 541 1375 541C1333.3 541 1291.7 541 1250 541C1208.3 541 1166.7 541 1125 541C1083.3 541 1041.7 541 1000 541C958.3 541 916.7 541 875 541C833.3 541 791.7 541 750 541C708.3 541 666.7 541 625 541C583.3 541 541.7 541 500 541C458.3 541 416.7 541 375 541C333.3 541 291.7 541 250 541C208.3 541 166.7 541 125 541C83.3 541 41.7 541 20.8 541L0 541Z" fill="#020d18"></path></svg>